<mxfile host="app.diagrams.net" modified="2023-12-13T15:59:34.256Z" agent="Mozilla/5.0 (Windows NT 10.0; Win64; x64) AppleWebKit/537.36 (KHTML, like Gecko) Chrome/118.0.0.0 Safari/537.36 OPR/104.0.0.0" etag="K71LryYGHx5APBHQM6O-" version="22.1.8" type="github">
  <diagram id="C5RBs43oDa-KdzZeNtuy" name="Page-1">
    <mxGraphModel dx="961" dy="561" grid="1" gridSize="10" guides="1" tooltips="1" connect="1" arrows="1" fold="1" page="1" pageScale="1" pageWidth="827" pageHeight="1169" math="0" shadow="0">
      <root>
        <mxCell id="WIyWlLk6GJQsqaUBKTNV-0" />
        <mxCell id="WIyWlLk6GJQsqaUBKTNV-1" parent="WIyWlLk6GJQsqaUBKTNV-0" />
        <mxCell id="TZa8QerhQanhoeWmGgLd-16" style="rounded=0;orthogonalLoop=1;jettySize=auto;html=1;exitX=0.5;exitY=0.5;exitDx=0;exitDy=0;exitPerimeter=0;entryX=0.058;entryY=0.3;entryDx=0;entryDy=0;entryPerimeter=0;" edge="1" parent="WIyWlLk6GJQsqaUBKTNV-1" source="TZa8QerhQanhoeWmGgLd-0" target="TZa8QerhQanhoeWmGgLd-20">
          <mxGeometry relative="1" as="geometry">
            <mxPoint x="130.25126265847211" y="129.7487373415281" as="targetPoint" />
          </mxGeometry>
        </mxCell>
        <mxCell id="TZa8QerhQanhoeWmGgLd-21" style="rounded=0;orthogonalLoop=1;jettySize=auto;html=1;entryX=0;entryY=0.5;entryDx=0;entryDy=0;exitX=0.5;exitY=0.5;exitDx=0;exitDy=0;exitPerimeter=0;" edge="1" parent="WIyWlLk6GJQsqaUBKTNV-1" source="TZa8QerhQanhoeWmGgLd-0" target="TZa8QerhQanhoeWmGgLd-17">
          <mxGeometry relative="1" as="geometry" />
        </mxCell>
        <mxCell id="TZa8QerhQanhoeWmGgLd-22" style="rounded=0;orthogonalLoop=1;jettySize=auto;html=1;exitX=0.5;exitY=0.5;exitDx=0;exitDy=0;exitPerimeter=0;entryX=0;entryY=0.5;entryDx=0;entryDy=0;" edge="1" parent="WIyWlLk6GJQsqaUBKTNV-1" source="TZa8QerhQanhoeWmGgLd-0" target="TZa8QerhQanhoeWmGgLd-18">
          <mxGeometry relative="1" as="geometry" />
        </mxCell>
        <mxCell id="TZa8QerhQanhoeWmGgLd-23" style="rounded=0;orthogonalLoop=1;jettySize=auto;html=1;exitX=0.5;exitY=0.5;exitDx=0;exitDy=0;exitPerimeter=0;entryX=0;entryY=0.5;entryDx=0;entryDy=0;" edge="1" parent="WIyWlLk6GJQsqaUBKTNV-1" source="TZa8QerhQanhoeWmGgLd-0" target="TZa8QerhQanhoeWmGgLd-19">
          <mxGeometry relative="1" as="geometry" />
        </mxCell>
        <mxCell id="TZa8QerhQanhoeWmGgLd-0" value="Người mua&lt;br&gt;" style="shape=umlActor;verticalLabelPosition=bottom;verticalAlign=top;html=1;outlineConnect=0;" vertex="1" parent="WIyWlLk6GJQsqaUBKTNV-1">
          <mxGeometry x="110" y="280" width="30" height="50" as="geometry" />
        </mxCell>
        <mxCell id="TZa8QerhQanhoeWmGgLd-5" value="Hệ thống E-mail&lt;br&gt;" style="shape=umlActor;verticalLabelPosition=bottom;verticalAlign=top;html=1;outlineConnect=0;" vertex="1" parent="WIyWlLk6GJQsqaUBKTNV-1">
          <mxGeometry x="450" y="60" width="30" height="60" as="geometry" />
        </mxCell>
        <mxCell id="TZa8QerhQanhoeWmGgLd-6" value="Hệ thống báo cáo tín dụng" style="shape=umlActor;verticalLabelPosition=bottom;verticalAlign=top;html=1;outlineConnect=0;" vertex="1" parent="WIyWlLk6GJQsqaUBKTNV-1">
          <mxGeometry x="450" y="410" width="30" height="60" as="geometry" />
        </mxCell>
        <mxCell id="TZa8QerhQanhoeWmGgLd-7" value="Hệ thống cho vay" style="shape=umlActor;verticalLabelPosition=bottom;verticalAlign=top;html=1;outlineConnect=0;" vertex="1" parent="WIyWlLk6GJQsqaUBKTNV-1">
          <mxGeometry x="500" y="230" width="30" height="60" as="geometry" />
        </mxCell>
        <mxCell id="TZa8QerhQanhoeWmGgLd-25" style="rounded=0;orthogonalLoop=1;jettySize=auto;html=1;exitX=1;exitY=0;exitDx=0;exitDy=0;entryX=0.5;entryY=0.5;entryDx=0;entryDy=0;entryPerimeter=0;" edge="1" parent="WIyWlLk6GJQsqaUBKTNV-1" source="TZa8QerhQanhoeWmGgLd-17" target="TZa8QerhQanhoeWmGgLd-5">
          <mxGeometry relative="1" as="geometry" />
        </mxCell>
        <mxCell id="TZa8QerhQanhoeWmGgLd-17" value="quản lý hồ sơ cá nhân" style="ellipse;whiteSpace=wrap;html=1;" vertex="1" parent="WIyWlLk6GJQsqaUBKTNV-1">
          <mxGeometry x="200" y="110" width="110" height="60" as="geometry" />
        </mxCell>
        <mxCell id="TZa8QerhQanhoeWmGgLd-26" style="rounded=0;orthogonalLoop=1;jettySize=auto;html=1;exitX=1;exitY=0.5;exitDx=0;exitDy=0;entryX=0.5;entryY=0.5;entryDx=0;entryDy=0;entryPerimeter=0;" edge="1" parent="WIyWlLk6GJQsqaUBKTNV-1" source="TZa8QerhQanhoeWmGgLd-18" target="TZa8QerhQanhoeWmGgLd-5">
          <mxGeometry relative="1" as="geometry" />
        </mxCell>
        <mxCell id="TZa8QerhQanhoeWmGgLd-18" value="tìm kiếm nhà" style="ellipse;whiteSpace=wrap;html=1;" vertex="1" parent="WIyWlLk6GJQsqaUBKTNV-1">
          <mxGeometry x="220" y="210" width="110" height="50" as="geometry" />
        </mxCell>
        <mxCell id="TZa8QerhQanhoeWmGgLd-27" style="rounded=0;orthogonalLoop=1;jettySize=auto;html=1;exitX=1;exitY=0.5;exitDx=0;exitDy=0;entryX=0.5;entryY=0.5;entryDx=0;entryDy=0;entryPerimeter=0;" edge="1" parent="WIyWlLk6GJQsqaUBKTNV-1" source="TZa8QerhQanhoeWmGgLd-19" target="TZa8QerhQanhoeWmGgLd-5">
          <mxGeometry relative="1" as="geometry">
            <mxPoint x="400" y="50" as="targetPoint" />
          </mxGeometry>
        </mxCell>
        <mxCell id="TZa8QerhQanhoeWmGgLd-19" value="yêu cầu vay" style="ellipse;whiteSpace=wrap;html=1;" vertex="1" parent="WIyWlLk6GJQsqaUBKTNV-1">
          <mxGeometry x="240" y="310" width="110" height="50" as="geometry" />
        </mxCell>
        <mxCell id="TZa8QerhQanhoeWmGgLd-20" value="&lt;span style=&quot;color: rgb(0, 0, 0); font-family: Helvetica; font-size: 12px; font-style: normal; font-variant-ligatures: normal; font-variant-caps: normal; font-weight: 400; letter-spacing: normal; orphans: 2; text-align: center; text-indent: 0px; text-transform: none; widows: 2; word-spacing: 0px; -webkit-text-stroke-width: 0px; background-color: rgb(251, 251, 251); text-decoration-thickness: initial; text-decoration-style: initial; text-decoration-color: initial; float: none; display: inline !important;&quot;&gt;tìm người môi giới&lt;/span&gt;" style="ellipse;whiteSpace=wrap;html=1;" vertex="1" parent="WIyWlLk6GJQsqaUBKTNV-1">
          <mxGeometry x="190" y="400" width="120" height="50" as="geometry" />
        </mxCell>
        <mxCell id="TZa8QerhQanhoeWmGgLd-28" style="rounded=0;orthogonalLoop=1;jettySize=auto;html=1;exitX=1;exitY=0.5;exitDx=0;exitDy=0;entryX=0.5;entryY=0.5;entryDx=0;entryDy=0;entryPerimeter=0;" edge="1" parent="WIyWlLk6GJQsqaUBKTNV-1" source="TZa8QerhQanhoeWmGgLd-19" target="TZa8QerhQanhoeWmGgLd-7">
          <mxGeometry relative="1" as="geometry" />
        </mxCell>
        <mxCell id="TZa8QerhQanhoeWmGgLd-29" style="rounded=0;orthogonalLoop=1;jettySize=auto;html=1;exitX=1;exitY=0.5;exitDx=0;exitDy=0;entryX=0.5;entryY=0.5;entryDx=0;entryDy=0;entryPerimeter=0;" edge="1" parent="WIyWlLk6GJQsqaUBKTNV-1" source="TZa8QerhQanhoeWmGgLd-19" target="TZa8QerhQanhoeWmGgLd-6">
          <mxGeometry relative="1" as="geometry" />
        </mxCell>
      </root>
    </mxGraphModel>
  </diagram>
</mxfile>
